<?xml version="1.0" encoding="iso-8859-1"?>
<!-- Generator: Adobe Illustrator 19.1.0, SVG Export Plug-In . SVG Version: 6.00 Build 0)  -->
<svg version="1.1" id="Capa_1" xmlns="http://www.w3.org/2000/svg" xmlns:xlink="http://www.w3.org/1999/xlink" x="0px" y="0px"
	 viewBox="0 0 519.184 519.184" style="enable-background:new 0 0 519.184 519.184;" xml:space="preserve">
<g>
	<g>
		<g>
			<path d="M42.79,165.454c-16.149,0-29.239,12.773-29.239,28.527v114.106c0,15.755,13.091,28.527,29.239,28.527
				s29.239-12.772,29.239-28.527V193.98C72.029,178.226,58.94,165.454,42.79,165.454z"/>
			<path d="M476.393,165.454c16.149,0,29.239,12.773,29.239,28.527v114.106c0,15.755-13.091,28.527-29.239,28.527
				s-29.239-12.772-29.239-28.527V193.98C447.154,178.226,460.246,165.454,476.393,165.454z"/>
			<path d="M83.44,165.454c0,0,0,182.57,0,205.391s27.192,34.232,34.232,34.232h42.789v85.58c0,15.755,13.091,28.527,29.239,28.527
				s29.241-12.772,29.241-28.527v-85.58h79.874v85.58c0,15.755,13.091,28.527,29.239,28.527s29.239-12.772,29.239-28.527v-85.58
				h45.643c7.04,0,34.232-11.411,34.232-34.232s0-205.391,0-205.391L83.44,165.454L83.44,165.454z"/>
			<path d="M437.17,154.044c0-36.554-14.627-70.127-39.05-96.54c0.016-0.016,0.033-0.029,0.05-0.045l32.273-32.274
				c4.457-4.456,4.457-11.681,0-16.138c-4.456-4.456-11.68-4.456-16.135,0l-32.274,32.274c-0.18,0.18-0.341,0.372-0.506,0.561
				C349.867,15.917,307.223,0,260.305,0c-48.466,0-92.371,16.984-124.316,44.483c-0.545-1.143-1.278-2.216-2.222-3.162
				L101.492,9.048c-4.456-4.456-11.681-4.456-16.137,0s-4.456,11.681,0,16.138l32.274,32.273c0.89,0.89,1.895,1.595,2.961,2.129
				c-23.281,26.085-37.152,58.858-37.152,94.455H437.17V154.044z M333.048,62.759c12.603,0,22.821,10.218,22.821,22.822
				c0,12.602-10.219,22.821-22.821,22.821c-12.604,0-22.822-10.218-22.822-22.821C310.227,72.976,320.444,62.759,333.048,62.759z
				 M184.71,62.759c12.604,0,22.821,10.218,22.821,22.822c0,12.602-10.217,22.821-22.821,22.821s-22.821-10.218-22.821-22.821
				C161.889,72.976,172.106,62.759,184.71,62.759z"/>
		</g>
	</g>
	<g>
	</g>
	<g>
	</g>
	<g>
	</g>
	<g>
	</g>
	<g>
	</g>
	<g>
	</g>
	<g>
	</g>
	<g>
	</g>
	<g>
	</g>
	<g>
	</g>
	<g>
	</g>
	<g>
	</g>
	<g>
	</g>
	<g>
	</g>
	<g>
	</g>
</g>
<g>
</g>
<g>
</g>
<g>
</g>
<g>
</g>
<g>
</g>
<g>
</g>
<g>
</g>
<g>
</g>
<g>
</g>
<g>
</g>
<g>
</g>
<g>
</g>
<g>
</g>
<g>
</g>
<g>
</g>
</svg>
