<?xml version="1.0" encoding="iso-8859-1"?>
<!-- Generator: Adobe Illustrator 19.1.0, SVG Export Plug-In . SVG Version: 6.00 Build 0)  -->
<svg version="1.1" id="Capa_1" xmlns="http://www.w3.org/2000/svg" xmlns:xlink="http://www.w3.org/1999/xlink" x="0px" y="0px"
	 viewBox="0 0 535.58 535.58" style="enable-background:new 0 0 535.58 535.58;" xml:space="preserve">
<g>
	<g>
		<path d="M376.552,40.168H327.46c0.369-1.429,0.584-2.918,0.584-4.463V17.853C328.044,7.992,320.053,0,310.191,0h-84.8
			c-9.859,0-17.853,7.992-17.853,17.853v17.853c0,1.545,0.216,3.035,0.585,4.463h-49.09c-9.807,0-17.757,7.992-17.757,17.853
			v459.705c0,9.859,7.95,17.853,17.757,17.853h217.516c9.806,0,17.755-7.994,17.755-17.853V58.021
			C394.308,48.161,386.358,40.168,376.552,40.168z M291.596,470.969h-47.607v-6.801h47.607V470.969z M291.596,110.516h-20.403
			v20.403h-6.801v-20.403h-20.403v-6.801h20.403V83.312h6.801v20.403h20.403C291.596,103.715,291.596,110.516,291.596,110.516z"/>
	</g>
	<g>
	</g>
	<g>
	</g>
	<g>
	</g>
	<g>
	</g>
	<g>
	</g>
	<g>
	</g>
	<g>
	</g>
	<g>
	</g>
	<g>
	</g>
	<g>
	</g>
	<g>
	</g>
	<g>
	</g>
	<g>
	</g>
	<g>
	</g>
	<g>
	</g>
</g>
<g>
</g>
<g>
</g>
<g>
</g>
<g>
</g>
<g>
</g>
<g>
</g>
<g>
</g>
<g>
</g>
<g>
</g>
<g>
</g>
<g>
</g>
<g>
</g>
<g>
</g>
<g>
</g>
<g>
</g>
</svg>
