<?xml version="1.0" encoding="iso-8859-1"?>
<!-- Generator: Adobe Illustrator 19.1.0, SVG Export Plug-In . SVG Version: 6.00 Build 0)  -->
<svg version="1.1" id="Capa_1" xmlns="http://www.w3.org/2000/svg" xmlns:xlink="http://www.w3.org/1999/xlink" x="0px" y="0px"
	 viewBox="0 0 493.072 493.072" style="enable-background:new 0 0 493.072 493.072;" xml:space="preserve">
<g>
	<g>
		<g>
			<path d="M246.536,55.764c-105.361,0-190.771,85.411-190.771,190.771s85.411,190.771,190.771,190.771
				c105.358,0,190.771-85.411,190.771-190.771S351.894,55.764,246.536,55.764z M354.118,309.941
				c-2.82,3.963-8.318,4.887-12.279,2.066L241.43,240.503c-0.17-0.121-0.301-0.272-0.459-0.403c-0.26-0.214-0.526-0.421-0.759-0.666
				c-0.196-0.203-0.358-0.426-0.531-0.644c-0.182-0.228-0.369-0.448-0.53-0.693c-0.152-0.238-0.272-0.491-0.401-0.738
				c-0.134-0.257-0.273-0.51-0.381-0.782c-0.104-0.264-0.174-0.536-0.251-0.808c-0.079-0.277-0.17-0.545-0.222-0.832
				c-0.061-0.323-0.075-0.65-0.098-0.976c-0.016-0.213-0.064-0.414-0.064-0.632V110.061c0-4.863,3.942-8.805,8.805-8.805
				c4.863,0,8.805,3.942,8.805,8.805v118.73l96.713,68.871C356.015,300.481,356.94,305.979,354.118,309.941z"/>
			<path d="M246.536,0C110.379,0,0,110.379,0,246.536s110.379,246.536,246.536,246.536c136.156,0,246.536-110.379,246.536-246.536
				S382.692,0,246.536,0z M246.536,475.462c-126.432,0-228.926-102.495-228.926-228.926S120.104,17.61,246.536,17.61
				s228.926,102.495,228.926,228.926S372.968,475.462,246.536,475.462z"/>
		</g>
	</g>
	<g>
	</g>
	<g>
	</g>
	<g>
	</g>
	<g>
	</g>
	<g>
	</g>
	<g>
	</g>
	<g>
	</g>
	<g>
	</g>
	<g>
	</g>
	<g>
	</g>
	<g>
	</g>
	<g>
	</g>
	<g>
	</g>
	<g>
	</g>
	<g>
	</g>
</g>
<g>
</g>
<g>
</g>
<g>
</g>
<g>
</g>
<g>
</g>
<g>
</g>
<g>
</g>
<g>
</g>
<g>
</g>
<g>
</g>
<g>
</g>
<g>
</g>
<g>
</g>
<g>
</g>
<g>
</g>
</svg>
