<?xml version="1.0" encoding="iso-8859-1"?>
<!-- Generator: Adobe Illustrator 19.1.0, SVG Export Plug-In . SVG Version: 6.00 Build 0)  -->
<svg version="1.1" id="Capa_1" xmlns="http://www.w3.org/2000/svg" xmlns:xlink="http://www.w3.org/1999/xlink" x="0px" y="0px"
	 viewBox="0 0 491.858 491.858" style="enable-background:new 0 0 491.858 491.858;" xml:space="preserve">
<g>
	<g>
		<path d="M245.929,0C110.107,0,0,110.106,0,245.929s110.107,245.929,245.929,245.929c135.823,0,245.929-110.106,245.929-245.929
			S381.752,0,245.929,0z M100.55,216.693c2.558,0,4.63,2.073,4.63,4.63l-41.666,75.229c0,0-3.472,3.472-6.943,0
			c-3.472-3.471-41.667-75.229-41.667-75.229c0-2.556,2.074-4.63,4.631-4.63h25.591c6.316-97.237,87.207-174.122,186.028-174.054
			c35.851,0.026,69.324,10.186,97.731,27.752c-21.048-8.26-43.959-12.809-67.933-12.825C167.246,57.5,89.661,126.63,76.493,216.693
			H100.55z M357.714,298.095H238.476c-8.232,0-14.905-6.673-14.905-14.905V163.953c0-8.232,6.673-14.904,14.905-14.904
			s14.904,6.672,14.904,14.904v104.333h104.333c8.232,0,14.905,6.673,14.905,14.904
			C372.619,291.421,365.947,298.095,357.714,298.095z"/>
	</g>
	<g>
	</g>
	<g>
	</g>
	<g>
	</g>
	<g>
	</g>
	<g>
	</g>
	<g>
	</g>
	<g>
	</g>
	<g>
	</g>
	<g>
	</g>
	<g>
	</g>
	<g>
	</g>
	<g>
	</g>
	<g>
	</g>
	<g>
	</g>
	<g>
	</g>
</g>
<g>
</g>
<g>
</g>
<g>
</g>
<g>
</g>
<g>
</g>
<g>
</g>
<g>
</g>
<g>
</g>
<g>
</g>
<g>
</g>
<g>
</g>
<g>
</g>
<g>
</g>
<g>
</g>
<g>
</g>
</svg>
