<?xml version="1.0" encoding="iso-8859-1"?>
<!-- Generator: Adobe Illustrator 19.1.0, SVG Export Plug-In . SVG Version: 6.00 Build 0)  -->
<svg version="1.1" id="Capa_1" xmlns="http://www.w3.org/2000/svg" xmlns:xlink="http://www.w3.org/1999/xlink" x="0px" y="0px"
	 viewBox="0 0 489.708 489.708" style="enable-background:new 0 0 489.708 489.708;" xml:space="preserve">
<g>
	<g>
		<g>
			<path d="M476.894,0.767L261.199,62.7c-4.718,4.718-4.718,12.367,0,17.086l87.376,34.95l-84.378,84.377
				c-6.669,6.669-6.669,17.48,0,24.148l3.019,3.018c6.669,6.669,17.48,6.669,24.147,0l84.377-84.377l34.951,87.376
				c4.717,4.718,12.369,4.718,17.084,0c0,0,61.933-202.883,61.933-215.696S476.894,0.767,476.894,0.767z"/>
			<path d="M12.814,488.941l215.695-61.933c4.718-4.718,4.718-12.366,0-17.085l-87.376-34.949l84.378-84.378
				c6.669-6.667,6.669-17.48,0-24.147l-3.019-3.019c-6.669-6.669-17.48-6.669-24.147,0l-84.377,84.38l-34.951-87.378
				c-4.717-4.717-12.368-4.717-17.084,0c0,0-61.933,202.883-61.933,215.696C0,488.94,12.814,488.941,12.814,488.941z"/>
		</g>
	</g>
	<g>
	</g>
	<g>
	</g>
	<g>
	</g>
	<g>
	</g>
	<g>
	</g>
	<g>
	</g>
	<g>
	</g>
	<g>
	</g>
	<g>
	</g>
	<g>
	</g>
	<g>
	</g>
	<g>
	</g>
	<g>
	</g>
	<g>
	</g>
	<g>
	</g>
</g>
<g>
</g>
<g>
</g>
<g>
</g>
<g>
</g>
<g>
</g>
<g>
</g>
<g>
</g>
<g>
</g>
<g>
</g>
<g>
</g>
<g>
</g>
<g>
</g>
<g>
</g>
<g>
</g>
<g>
</g>
</svg>
