<?xml version="1.0" encoding="iso-8859-1"?>
<!-- Generator: Adobe Illustrator 19.1.0, SVG Export Plug-In . SVG Version: 6.00 Build 0)  -->
<svg version="1.1" id="Capa_1" xmlns="http://www.w3.org/2000/svg" xmlns:xlink="http://www.w3.org/1999/xlink" x="0px" y="0px"
	 viewBox="0 0 491.858 491.858" style="enable-background:new 0 0 491.858 491.858;" xml:space="preserve">
<g>
	<g>
		<path d="M245.929,0C110.106,0,0,110.106,0,245.929s110.106,245.929,245.929,245.929c135.822,0,245.929-110.106,245.929-245.929
			S381.751,0,245.929,0z M43.721,245.929c0-111.677,90.531-202.208,202.208-202.208c46.144,0,88.668,15.467,122.696,41.485
			L85.204,368.625C59.187,334.597,43.721,292.072,43.721,245.929z M245.929,448.137c-45.828,0-88.087-15.255-122-40.95
			L407.186,123.93c25.694,33.911,40.949,76.171,40.949,121.999C448.136,357.605,357.605,448.137,245.929,448.137z"/>
	</g>
	<g>
	</g>
	<g>
	</g>
	<g>
	</g>
	<g>
	</g>
	<g>
	</g>
	<g>
	</g>
	<g>
	</g>
	<g>
	</g>
	<g>
	</g>
	<g>
	</g>
	<g>
	</g>
	<g>
	</g>
	<g>
	</g>
	<g>
	</g>
	<g>
	</g>
</g>
<g>
</g>
<g>
</g>
<g>
</g>
<g>
</g>
<g>
</g>
<g>
</g>
<g>
</g>
<g>
</g>
<g>
</g>
<g>
</g>
<g>
</g>
<g>
</g>
<g>
</g>
<g>
</g>
<g>
</g>
</svg>
