<?xml version="1.0" encoding="iso-8859-1"?>
<!-- Generator: Adobe Illustrator 19.1.0, SVG Export Plug-In . SVG Version: 6.00 Build 0)  -->
<svg version="1.1" id="Capa_1" xmlns="http://www.w3.org/2000/svg" xmlns:xlink="http://www.w3.org/1999/xlink" x="0px" y="0px"
	 viewBox="0 0 492.916 492.916" style="enable-background:new 0 0 492.916 492.916;" xml:space="preserve">
<g>
	<path d="M471.008,53.792h-449.1C9.807,53.792,0,61.46,0,70.917v351.078c0,9.461,9.807,17.128,21.908,17.128h18.354
		c0.001,0,0.002,0,0.002,0h0.002h430.742c12.097,0,21.908-7.667,21.908-17.128V70.917C492.915,61.46,483.105,53.792,471.008,53.792z
		 M40.264,358.595c-5.103,0-9.979,0.959-14.472,2.691v-44.707c29.009,2.528,51.951,12.061,68.34,28.438
		c15.597,15.587,24.989,37.105,28.04,64.135H79.195c0.867-3.286,1.333-6.735,1.333-10.293
		C80.528,376.622,62.501,358.595,40.264,358.595z M25.792,296.525v-53.487c52.645,2.452,93.981,18.338,122.998,47.335
		c28.253,28.234,44.065,68.138,47.143,118.78h-53.666C135.451,342.033,94.057,301.921,25.792,296.525z M162.927,276.224
		c-32.835-32.812-78.926-50.67-137.135-53.206v-53.315c151.769,4.545,237.593,88.984,243.584,239.449h-53.402
		C212.787,352.921,194.987,308.262,162.927,276.224z M447.509,409.152H289.393c-1.407-36.819-7.388-70.439-17.846-100.135
		c-12.085-34.311-30.241-63.729-53.964-87.435c-23.723-23.705-53.161-41.847-87.496-53.922
		c-30.812-10.836-65.85-16.853-104.295-17.96V94.133c0-8.093,8.781-14.652,19.614-14.652h402.101
		c10.832,0,19.615,6.559,19.615,14.652v300.368h0.002C467.124,402.592,458.341,409.152,447.509,409.152z"/>
</g>
<g>
</g>
<g>
</g>
<g>
</g>
<g>
</g>
<g>
</g>
<g>
</g>
<g>
</g>
<g>
</g>
<g>
</g>
<g>
</g>
<g>
</g>
<g>
</g>
<g>
</g>
<g>
</g>
<g>
</g>
</svg>
