<?xml version="1.0" encoding="iso-8859-1"?>
<!-- Generator: Adobe Illustrator 19.1.0, SVG Export Plug-In . SVG Version: 6.00 Build 0)  -->
<svg version="1.1" id="Capa_1" xmlns="http://www.w3.org/2000/svg" xmlns:xlink="http://www.w3.org/1999/xlink" x="0px" y="0px"
	 viewBox="0 0 533.876 533.876" style="enable-background:new 0 0 533.876 533.876;" xml:space="preserve">
<g>
	<g>
		<path d="M487.221,222.794L285.205,8.062c-5.341-5.678-12.288-8.481-18.267-8.011c-5.979-0.471-12.926,2.333-18.267,8.011
			l-81.606,86.743V80.388c0-10.018-12.032-18.139-26.874-18.139h-6.718c-14.842,0-26.872,8.121-26.872,18.139v72.558
			c0,1.738,0.384,3.414,1.059,5.005l-61.005,64.844c-8.114,8.625-9.434,20.564-2.949,26.666l2.935,2.762
			c6.488,6.1,18.323,4.056,26.436-4.569l9.336-9.922v281.975c0,7.824,6.343,14.169,14.169,14.169h129.48V344.418
			c0-8.906,7.219-16.124,16.124-16.124h52.403c8.906,0,16.123,7.219,16.123,16.124v189.456h129.481
			c7.822,0,14.168-6.346,14.168-14.169v-278.89l6.434,6.839c8.115,8.625,19.949,10.67,26.436,4.569l2.935-2.762
			C496.655,243.359,495.335,231.42,487.221,222.794z"/>
	</g>
	<g>
	</g>
	<g>
	</g>
	<g>
	</g>
	<g>
	</g>
	<g>
	</g>
	<g>
	</g>
	<g>
	</g>
	<g>
	</g>
	<g>
	</g>
	<g>
	</g>
	<g>
	</g>
	<g>
	</g>
	<g>
	</g>
	<g>
	</g>
	<g>
	</g>
</g>
<g>
</g>
<g>
</g>
<g>
</g>
<g>
</g>
<g>
</g>
<g>
</g>
<g>
</g>
<g>
</g>
<g>
</g>
<g>
</g>
<g>
</g>
<g>
</g>
<g>
</g>
<g>
</g>
<g>
</g>
</svg>
