<?xml version="1.0" encoding="iso-8859-1"?>
<!-- Generator: Adobe Illustrator 19.1.0, SVG Export Plug-In . SVG Version: 6.00 Build 0)  -->
<svg version="1.1" id="Capa_1" xmlns="http://www.w3.org/2000/svg" xmlns:xlink="http://www.w3.org/1999/xlink" x="0px" y="0px"
	 viewBox="0 0 535.578 535.578" style="enable-background:new 0 0 535.578 535.578;" xml:space="preserve">
<g>
	<g>
		<g>
			<path d="M328.041,525.839c0,5.379-4.496,9.739-10.042,9.739h-100.42c-5.546,0-10.042-4.36-10.042-9.739V464.98
				c0-5.379,4.496-9.739,10.042-9.739h100.42c5.545,0,10.042,4.36,10.042,9.739V525.839L328.041,525.839z"/>
			<path d="M328.041,436.983c0,2.689-4.496,4.869-10.042,4.869h-100.42c-5.546,0-10.042-2.18-10.042-4.869v-30.432
				c0-2.689,4.496-4.869,10.042-4.869h100.42c5.545,0,10.042,2.18,10.042,4.869V436.983L328.041,436.983z"/>
			<path d="M267.787,0c-88.738,0-160.673,71.935-160.673,160.673c0,62.194,95.024,227.621,104.885,227.621h111.579
				c9.86,0,104.885-165.427,104.885-227.621C428.462,71.935,356.526,0,267.787,0z M314.28,350.358h-92.983
				c-8.217,0-87.404-137.855-87.404-189.685c0-73.949,59.946-133.895,133.895-133.895s133.895,59.946,133.895,133.895
				C401.682,212.503,322.495,350.358,314.28,350.358z"/>
		</g>
	</g>
	<g>
	</g>
	<g>
	</g>
	<g>
	</g>
	<g>
	</g>
	<g>
	</g>
	<g>
	</g>
	<g>
	</g>
	<g>
	</g>
	<g>
	</g>
	<g>
	</g>
	<g>
	</g>
	<g>
	</g>
	<g>
	</g>
	<g>
	</g>
	<g>
	</g>
</g>
<g>
</g>
<g>
</g>
<g>
</g>
<g>
</g>
<g>
</g>
<g>
</g>
<g>
</g>
<g>
</g>
<g>
</g>
<g>
</g>
<g>
</g>
<g>
</g>
<g>
</g>
<g>
</g>
<g>
</g>
</svg>
