<?xml version="1.0" encoding="iso-8859-1"?>
<!-- Generator: Adobe Illustrator 19.1.0, SVG Export Plug-In . SVG Version: 6.00 Build 0)  -->
<svg version="1.1" id="Capa_1" xmlns="http://www.w3.org/2000/svg" xmlns:xlink="http://www.w3.org/1999/xlink" x="0px" y="0px"
	 viewBox="0 0 535.578 535.578" style="enable-background:new 0 0 535.578 535.578;" xml:space="preserve">
<g>
	<g>
		<g>
			<path d="M113.531,481.583c0,29.818-5.372,53.995-11.998,53.995H44.537c-6.627,0-11.998-24.177-11.998-53.995V225.108
				c0-29.821,5.372-53.995,11.998-53.995h56.996c6.626,0,11.998,24.175,11.998,53.995V481.583z"/>
			<path d="M449.048,161.984h-69.266c1.116-4.322,1.771-8.828,1.771-13.499v-94.49C381.553,24.174,357.378,0,327.558,0
				l-67.494,148.486c0,4.671-121.489,37.673-121.489,67.494v256.475c0,29.816,24.173,53.995,53.995,53.995h256.476
				c29.821,0,53.994-24.179,53.994-53.995V215.979C503.042,186.159,478.869,161.984,449.048,161.984z"/>
		</g>
	</g>
	<g>
	</g>
	<g>
	</g>
	<g>
	</g>
	<g>
	</g>
	<g>
	</g>
	<g>
	</g>
	<g>
	</g>
	<g>
	</g>
	<g>
	</g>
	<g>
	</g>
	<g>
	</g>
	<g>
	</g>
	<g>
	</g>
	<g>
	</g>
	<g>
	</g>
</g>
<g>
</g>
<g>
</g>
<g>
</g>
<g>
</g>
<g>
</g>
<g>
</g>
<g>
</g>
<g>
</g>
<g>
</g>
<g>
</g>
<g>
</g>
<g>
</g>
<g>
</g>
<g>
</g>
<g>
</g>
</svg>
