<?xml version="1.0" encoding="iso-8859-1"?>
<!-- Generator: Adobe Illustrator 19.1.0, SVG Export Plug-In . SVG Version: 6.00 Build 0)  -->
<svg version="1.1" id="Capa_1" xmlns="http://www.w3.org/2000/svg" xmlns:xlink="http://www.w3.org/1999/xlink" x="0px" y="0px"
	 viewBox="0 0 481.268 481.268" style="enable-background:new 0 0 481.268 481.268;" xml:space="preserve">
<g>
	<path d="M480.903,140.911c-2.756-48.496-14.014-79.27-37.645-102.902l-0.001-0.001C423.792,18.544,384.479-2.998,337.819,0.346
		c-14.865,1.065-38.859,10.323-92.93,72.988c-26.125,30.277-47.8,59.793-51.469,64.833c-7.456,9.115-6.209,22.784,3.726,40.676
		c5.536,9.971,13.622,21.154,24.129,33.413l-8.979,8.979c-12.447-10.705-23.752-18.874-33.781-24.386
		c-17.15-9.429-30.412-10.777-39.49-4.038c-6.234,3.883-36.638,23.123-67.204,47.723c-50.319,40.497-73.025,72.215-71.456,99.819
		c2.755,48.496,14.014,79.271,37.645,102.903c18.104,18.107,53.364,38.013,95.777,38.012c3.181,0,6.406-0.113,9.663-0.346
		c14.864-1.063,38.859-10.321,92.931-72.987c26.127-30.28,47.802-59.798,51.47-64.835c7.455-9.116,6.207-22.784-3.727-40.676
		c-5.31-9.563-12.969-20.242-22.855-31.915l9.202-9.202c11.855,10.075,22.66,17.822,32.283,23.112
		c10.003,5.499,18.682,8.249,25.982,8.249c5.213,0,9.723-1.403,13.507-4.212c6.231-3.881,36.638-23.121,67.205-47.723
		C459.766,200.236,482.472,168.516,480.903,140.911z M252.225,325.688c-7.924,10.633-25.338,33.52-45.048,56.392
		c-49.554,57.504-65.866,59.871-66.512,59.941c-31.248,2.229-60.823-12.086-75.076-26.342h-0.001
		c-12.05-12.05-23.574-29.782-26.286-77.539c-0.534-9.4,13.994-32.589,56.696-67.004c24.019-19.357,48.583-35.594,59.159-42.376
		c4.613,2.005,14.086,7.174,29.474,20.14l-83.932,83.932c-18.654,18.653-26.44,41.102-17.396,50.146l16.375,16.373
		c9.044,9.044,31.491,1.259,50.145-17.396l83.766-83.766C245.097,312.099,250.101,321.002,252.225,325.688z M385.269,210.131
		c-24.018,19.357-48.582,35.594-59.158,42.376c-4.46-1.938-13.467-6.841-27.963-18.877l88.071-88.071
		c18.652-18.653,26.44-41.101,17.396-50.144L387.24,79.04c-9.043-9.044-31.492-1.258-50.145,17.396l-88.154,88.154
		c-12.406-14.778-17.699-24.159-19.899-29.012c7.894-10.594,25.214-33.359,44.892-56.207c49.677-57.682,66.023-60.053,66.67-60.124
		c31.252-2.233,60.82,12.085,75.075,26.339c12.049,12.05,23.571,29.782,26.285,77.539
		C442.498,152.526,427.971,175.715,385.269,210.131z"/>
</g>
<g>
</g>
<g>
</g>
<g>
</g>
<g>
</g>
<g>
</g>
<g>
</g>
<g>
</g>
<g>
</g>
<g>
</g>
<g>
</g>
<g>
</g>
<g>
</g>
<g>
</g>
<g>
</g>
<g>
</g>
</svg>
