<?xml version="1.0" encoding="iso-8859-1"?>
<!-- Generator: Adobe Illustrator 19.1.0, SVG Export Plug-In . SVG Version: 6.00 Build 0)  -->
<svg version="1.1" id="Capa_1" xmlns="http://www.w3.org/2000/svg" xmlns:xlink="http://www.w3.org/1999/xlink" x="0px" y="0px"
	 viewBox="0 0 491.858 491.858" style="enable-background:new 0 0 491.858 491.858;" xml:space="preserve">
<g>
	<g>
		<g>
			<path d="M233.632,217.239c0,9.055-7.339,16.395-16.395,16.395H16.395C7.339,233.635,0,226.294,0,217.239V16.396
				C0,7.341,7.339,0.001,16.395,0.001h200.842c9.056,0,16.395,7.34,16.395,16.395V217.239z"/>
			<path d="M491.858,217.239c0,9.055-7.339,16.395-16.395,16.395H274.62c-9.056,0-16.395-7.34-16.395-16.395V16.396
				c0-9.055,7.339-16.395,16.395-16.395h200.842c9.056,0,16.395,7.34,16.395,16.395v200.843H491.858z"/>
			<path d="M233.632,475.462c0,9.055-7.339,16.395-16.395,16.395H16.395C7.339,491.858,0,484.517,0,475.462V274.619
				c0-9.055,7.339-16.395,16.395-16.395h200.842c9.056,0,16.395,7.34,16.395,16.395V475.462z"/>
			<path d="M491.858,475.462c0,9.055-7.339,16.395-16.395,16.395H274.62c-9.056,0-16.395-7.34-16.395-16.395V274.619
				c0-9.055,7.339-16.395,16.395-16.395h200.842c9.056,0,16.395,7.34,16.395,16.395v200.843H491.858z"/>
		</g>
	</g>
	<g>
	</g>
	<g>
	</g>
	<g>
	</g>
	<g>
	</g>
	<g>
	</g>
	<g>
	</g>
	<g>
	</g>
	<g>
	</g>
	<g>
	</g>
	<g>
	</g>
	<g>
	</g>
	<g>
	</g>
	<g>
	</g>
	<g>
	</g>
	<g>
	</g>
</g>
<g>
</g>
<g>
</g>
<g>
</g>
<g>
</g>
<g>
</g>
<g>
</g>
<g>
</g>
<g>
</g>
<g>
</g>
<g>
</g>
<g>
</g>
<g>
</g>
<g>
</g>
<g>
</g>
<g>
</g>
</svg>
