<?xml version="1.0" encoding="iso-8859-1"?>
<!-- Generator: Adobe Illustrator 19.1.0, SVG Export Plug-In . SVG Version: 6.00 Build 0)  -->
<svg version="1.1" id="Capa_1" xmlns="http://www.w3.org/2000/svg" xmlns:xlink="http://www.w3.org/1999/xlink" x="0px" y="0px"
	 viewBox="0 0 491.857 491.857" style="enable-background:new 0 0 491.857 491.857;" xml:space="preserve">
<g>
	<g>
		<path d="M475.462,98.372H176.249c-9.055,0-16.395,7.34-16.395,16.395V241.83c0,9.054,7.34,16.395,16.395,16.395h254.126
			l49.186,36.889l-4.099-36.889c9.054,0,16.395-7.341,16.395-16.395V114.767C491.858,105.712,484.516,98.372,475.462,98.372z
			 M368.893,184.447h-172.15V172.15h172.15V184.447z M454.968,147.557H196.743v-12.296h258.225L454.968,147.557L454.968,147.557z"/>
		<path d="M315.609,270.522H16.395C7.341,270.522,0,277.863,0,286.917v20.494v32.79c0,9.054,7.341,16.395,16.395,16.395
			l-4.099,36.889l49.186-36.889h254.126c9.054,0,16.395-7.341,16.395-16.395v-32.79v-20.494
			C332.004,277.863,324.662,270.522,315.609,270.522z M245.929,319.707H36.889v-12.296h209.039L245.929,319.707L245.929,319.707z"/>
	</g>
	<g>
	</g>
	<g>
	</g>
	<g>
	</g>
	<g>
	</g>
	<g>
	</g>
	<g>
	</g>
	<g>
	</g>
	<g>
	</g>
	<g>
	</g>
	<g>
	</g>
	<g>
	</g>
	<g>
	</g>
	<g>
	</g>
	<g>
	</g>
	<g>
	</g>
</g>
<g>
</g>
<g>
</g>
<g>
</g>
<g>
</g>
<g>
</g>
<g>
</g>
<g>
</g>
<g>
</g>
<g>
</g>
<g>
</g>
<g>
</g>
<g>
</g>
<g>
</g>
<g>
</g>
<g>
</g>
</svg>
