<?xml version="1.0" encoding="iso-8859-1"?>
<!-- Generator: Adobe Illustrator 19.1.0, SVG Export Plug-In . SVG Version: 6.00 Build 0)  -->
<svg version="1.1" id="Capa_1" xmlns="http://www.w3.org/2000/svg" xmlns:xlink="http://www.w3.org/1999/xlink" x="0px" y="0px"
	 viewBox="0 0 491.858 491.858" style="enable-background:new 0 0 491.858 491.858;" xml:space="preserve">
<g>
	<g>
		<g id="Layer_1">
			<g>
				<path d="M251.648,314.559H22.877v-99.575v-5.63v-20.618H0v194.455h228.771h228.771v-68.632L251.648,314.559L251.648,314.559z
					 M434.665,365.944H22.877v-5.63h411.788V365.944z"/>
				<g>
					<path d="M263.087,108.667H34.316v194.455h228.771h228.771V108.667H263.087z M468.981,285.874H57.193v-5.63h411.788V285.874z
						 M468.981,134.913H57.193v-5.63h411.788V134.913z"/>
					<g style="enable-background:new    ;">
						<path style="fill:#FFFFFF;" d="M205.57,245.928v-10.315l9.418-8.521c15.921-14.239,23.658-22.424,23.882-30.945
							c0-5.943-3.588-10.652-11.997-10.652c-6.279,0-11.773,3.14-15.585,6.055l-4.821-12.221c5.494-4.148,14.015-7.512,23.882-7.512
							c16.482,0,25.564,9.643,25.564,22.873c0,12.222-8.857,21.976-19.397,31.394l-6.728,5.606v0.224h27.47v14.015H205.57V245.928z"
							/>
						<path style="fill:#FFFFFF;" d="M321.613,209.152c0,22.537-9.082,38.009-27.694,38.009c-18.836,0-27.133-16.93-27.245-37.561
							c0-21.079,8.97-37.785,27.807-37.785C313.989,171.816,321.613,189.194,321.613,209.152z M283.828,209.6
							c-0.111,16.707,3.925,24.667,10.54,24.667s10.203-8.297,10.203-24.891c0-16.146-3.477-24.667-10.315-24.667
							C287.976,184.71,283.716,192.67,283.828,209.6z"/>
					</g>
				</g>
			</g>
		</g>
	</g>
	<g>
	</g>
	<g>
	</g>
	<g>
	</g>
	<g>
	</g>
	<g>
	</g>
	<g>
	</g>
	<g>
	</g>
	<g>
	</g>
	<g>
	</g>
	<g>
	</g>
	<g>
	</g>
	<g>
	</g>
	<g>
	</g>
	<g>
	</g>
	<g>
	</g>
</g>
<g>
</g>
<g>
</g>
<g>
</g>
<g>
</g>
<g>
</g>
<g>
</g>
<g>
</g>
<g>
</g>
<g>
</g>
<g>
</g>
<g>
</g>
<g>
</g>
<g>
</g>
<g>
</g>
<g>
</g>
</svg>
