<?xml version="1.0" encoding="iso-8859-1"?>
<!-- Generator: Adobe Illustrator 19.1.0, SVG Export Plug-In . SVG Version: 6.00 Build 0)  -->
<svg version="1.1" id="Capa_1" xmlns="http://www.w3.org/2000/svg" xmlns:xlink="http://www.w3.org/1999/xlink" x="0px" y="0px"
	 viewBox="0 0 491.858 491.858" style="enable-background:new 0 0 491.858 491.858;" xml:space="preserve">
<g>
	<g>
		<path d="M92.224,46.112v92.224v184.811c-2.532-0.228-5.092-0.364-7.685-0.364C37.849,322.781,0,360.63,0,407.32
			s37.849,84.538,84.538,84.538c44.097,0,80.289-33.768,84.174-76.852h0.363V129.467l245.929-28.376v191.313
			c-2.532-0.228-5.092-0.363-7.685-0.363c-46.689,0-84.538,37.849-84.538,84.538s37.849,84.538,84.538,84.538
			c44.097,0,80.288-33.768,84.174-76.852h0.364V92.224V15.37V0L92.224,46.112z"/>
	</g>
	<g>
	</g>
	<g>
	</g>
	<g>
	</g>
	<g>
	</g>
	<g>
	</g>
	<g>
	</g>
	<g>
	</g>
	<g>
	</g>
	<g>
	</g>
	<g>
	</g>
	<g>
	</g>
	<g>
	</g>
	<g>
	</g>
	<g>
	</g>
	<g>
	</g>
</g>
<g>
</g>
<g>
</g>
<g>
</g>
<g>
</g>
<g>
</g>
<g>
</g>
<g>
</g>
<g>
</g>
<g>
</g>
<g>
</g>
<g>
</g>
<g>
</g>
<g>
</g>
<g>
</g>
<g>
</g>
</svg>
