<?xml version="1.0" encoding="iso-8859-1"?>
<!-- Generator: Adobe Illustrator 19.1.0, SVG Export Plug-In . SVG Version: 6.00 Build 0)  -->
<svg version="1.1" id="Capa_1" xmlns="http://www.w3.org/2000/svg" xmlns:xlink="http://www.w3.org/1999/xlink" x="0px" y="0px"
	 viewBox="0 0 493.224 493.224" style="enable-background:new 0 0 493.224 493.224;" xml:space="preserve">
<g>
	<g>
		<path d="M246.614,0C110.414,0,0.001,110.412,0.001,246.613c0,64.084,24.447,122.452,64.518,166.304v0.002h0.002
			c45.094,49.346,109.976,80.305,182.092,80.305c136.2,0,246.611-110.412,246.611-246.611S382.812,0,246.614,0z M146.495,128.733
			c21.128,0,38.256,17.128,38.256,38.256s-17.128,38.256-38.256,38.256s-38.256-17.128-38.256-38.256
			S125.368,128.733,146.495,128.733z M381.494,358.267H103.229v-32.79h278.264V358.267z M343.239,205.244
			c-21.128,0-38.256-17.128-38.256-38.256s17.128-38.256,38.256-38.256c21.128,0,38.256,17.128,38.256,38.256
			S364.367,205.244,343.239,205.244z"/>
	</g>
	<g>
	</g>
	<g>
	</g>
	<g>
	</g>
	<g>
	</g>
	<g>
	</g>
	<g>
	</g>
	<g>
	</g>
	<g>
	</g>
	<g>
	</g>
	<g>
	</g>
	<g>
	</g>
	<g>
	</g>
	<g>
	</g>
	<g>
	</g>
	<g>
	</g>
</g>
<g>
</g>
<g>
</g>
<g>
</g>
<g>
</g>
<g>
</g>
<g>
</g>
<g>
</g>
<g>
</g>
<g>
</g>
<g>
</g>
<g>
</g>
<g>
</g>
<g>
</g>
<g>
</g>
<g>
</g>
</svg>
