<?xml version="1.0" encoding="iso-8859-1"?>
<!-- Generator: Adobe Illustrator 19.1.0, SVG Export Plug-In . SVG Version: 6.00 Build 0)  -->
<svg version="1.1" id="Capa_1" xmlns="http://www.w3.org/2000/svg" xmlns:xlink="http://www.w3.org/1999/xlink" x="0px" y="0px"
	 viewBox="0 0 484.486 484.486" style="enable-background:new 0 0 484.486 484.486;" xml:space="preserve">
<g>
	<g>
		<g>
			<path d="M34.316,369.972l22.877-221.144c0-8.424,14.453-15.251,22.877-15.251H11.438c0,0-11.438,6.829-11.438,15.251
				l22.877,221.144c0,8.424,6.828,15.252,15.251,15.252h11.438C41.144,385.225,34.316,378.396,34.316,369.972z"/>
			<path d="M484.486,104.114c0-2.68-5.187-4.853-8.212-4.853H340.771c-3.024,0-8.213,2.173-8.213,4.853l-3.438,29.463H84.137
				c-8.422,0-22.877,6.829-22.877,15.251L38.382,369.972c0,8.424,6.829,15.252,15.251,15.252h392.725
				c8.424,0,15.252-6.829,15.252-15.252L484.486,104.114z"/>
		</g>
	</g>
	<g>
	</g>
	<g>
	</g>
	<g>
	</g>
	<g>
	</g>
	<g>
	</g>
	<g>
	</g>
	<g>
	</g>
	<g>
	</g>
	<g>
	</g>
	<g>
	</g>
	<g>
	</g>
	<g>
	</g>
	<g>
	</g>
	<g>
	</g>
	<g>
	</g>
</g>
<g>
</g>
<g>
</g>
<g>
</g>
<g>
</g>
<g>
</g>
<g>
</g>
<g>
</g>
<g>
</g>
<g>
</g>
<g>
</g>
<g>
</g>
<g>
</g>
<g>
</g>
<g>
</g>
<g>
</g>
</svg>
