<?xml version="1.0" encoding="iso-8859-1"?>
<!-- Generator: Adobe Illustrator 19.1.0, SVG Export Plug-In . SVG Version: 6.00 Build 0)  -->
<svg version="1.1" id="Capa_1" xmlns="http://www.w3.org/2000/svg" xmlns:xlink="http://www.w3.org/1999/xlink" x="0px" y="0px"
	 viewBox="0 0 532.401 532.401" style="enable-background:new 0 0 532.401 532.401;" xml:space="preserve">
<g>
	<g>
		<path d="M439.35,132.833h-37.616C399.438,59.091,339.009,0,264.709,0c-74.298,0-134.728,59.091-137.024,132.833h-34.63
			c-14.713,0-26.638,11.926-26.638,26.638v346.292c0,14.711,11.925,26.638,26.638,26.638H439.35
			c14.708,0,26.634-11.927,26.634-26.638V159.471C465.985,144.759,454.059,132.833,439.35,132.833z M285.525,327.624
			c0.412,1.598,0.655,3.264,0.655,4.993v39.958c0,11.031-8.945,19.975-19.979,19.975c-11.035,0-19.978-8.945-19.978-19.975v-39.958
			c0-1.728,0.24-3.394,0.653-4.993c-12.298-6.814-20.633-19.909-20.633-34.964c0-22.066,17.889-39.958,39.956-39.958
			c22.066,0,39.957,17.891,39.957,39.958C306.158,307.717,297.824,320.81,285.525,327.624z M155.125,132.833
			c2.282-58.588,50.437-105.4,109.585-105.4s107.3,46.811,109.583,105.4H155.125z"/>
	</g>
	<g>
	</g>
	<g>
	</g>
	<g>
	</g>
	<g>
	</g>
	<g>
	</g>
	<g>
	</g>
	<g>
	</g>
	<g>
	</g>
	<g>
	</g>
	<g>
	</g>
	<g>
	</g>
	<g>
	</g>
	<g>
	</g>
	<g>
	</g>
	<g>
	</g>
</g>
<g>
</g>
<g>
</g>
<g>
</g>
<g>
</g>
<g>
</g>
<g>
</g>
<g>
</g>
<g>
</g>
<g>
</g>
<g>
</g>
<g>
</g>
<g>
</g>
<g>
</g>
<g>
</g>
<g>
</g>
</svg>
