<?xml version="1.0" encoding="iso-8859-1"?>
<!-- Generator: Adobe Illustrator 19.1.0, SVG Export Plug-In . SVG Version: 6.00 Build 0)  -->
<svg version="1.1" id="Capa_1" xmlns="http://www.w3.org/2000/svg" xmlns:xlink="http://www.w3.org/1999/xlink" x="0px" y="0px"
	 viewBox="0 0 533.682 533.682" style="enable-background:new 0 0 533.682 533.682;" xml:space="preserve">
<g>
	<g>
		<path d="M391.803,77.427C377.963,32.585,315.617,0,266.232,0c-59.48,0-123.672,47.267-125.573,106.285
			c-0.328,1.952,0,6.006,0,6.006v371.886c0,18.67,14.054,33.808,31.393,33.808s31.393-20.526,31.393-33.808
			c0-13.283,0-374.301,0-374.301c0-26.008,36.781-47.09,62.787-47.09c25.093,0,60.207,19.632,62.641,44.372v348.041
			c0,26.009-31.971,26.009-31.971,0V204.055c0-17.338-14.055-31.393-31.393-31.393c-17.339,0-31.394,14.055-31.394,31.393
			c0,0,1.803,278.744,4.876,283.594c13.841,44.842,27.239,46.033,90.024,46.033c62.787,0,62.642-80.898,62.642-80.898V128.44
			c0.085-0.946,0.145-1.901,0.145-2.867C391.803,125.572,394.877,82.277,391.803,77.427z"/>
	</g>
	<g>
	</g>
	<g>
	</g>
	<g>
	</g>
	<g>
	</g>
	<g>
	</g>
	<g>
	</g>
	<g>
	</g>
	<g>
	</g>
	<g>
	</g>
	<g>
	</g>
	<g>
	</g>
	<g>
	</g>
	<g>
	</g>
	<g>
	</g>
	<g>
	</g>
</g>
<g>
</g>
<g>
</g>
<g>
</g>
<g>
</g>
<g>
</g>
<g>
</g>
<g>
</g>
<g>
</g>
<g>
</g>
<g>
</g>
<g>
</g>
<g>
</g>
<g>
</g>
<g>
</g>
<g>
</g>
</svg>
