<?xml version="1.0" encoding="iso-8859-1"?>
<!-- Generator: Adobe Illustrator 19.1.0, SVG Export Plug-In . SVG Version: 6.00 Build 0)  -->
<svg version="1.1" id="Capa_1" xmlns="http://www.w3.org/2000/svg" xmlns:xlink="http://www.w3.org/1999/xlink" x="0px" y="0px"
	 viewBox="0 0 492.199 492.199" style="enable-background:new 0 0 492.199 492.199;" xml:space="preserve">
<g>
	<g>
		<g>
			<circle cx="246.099" cy="275.4" r="73.975"/>
			<g>
				<path d="M459.388,125.249H375.48c-4.178-3.918-8.527-9.461-8.527-15.625V88.139c0-11.868-9.617-21.486-21.485-21.486H146.733
					c-11.865,0-21.485,9.619-21.485,21.486v21.483c0,6.166-4.347,11.709-8.527,15.625H32.814C14.69,125.249,0,134.213,0,145.269
					v260.258c0,11.055,14.69,20.02,32.814,20.02h426.574c18.121,0,32.811-8.965,32.811-20.019V145.269
					C492.198,134.213,477.509,125.249,459.388,125.249z M246.1,377.943c-56.633,0-102.542-45.913-102.542-102.543
					c0-56.634,45.909-102.543,102.542-102.543S348.641,218.764,348.641,275.4C348.641,332.03,302.733,377.943,246.1,377.943z"/>
			</g>
			<circle style="fill:#FFFFFF;" cx="398.446" cy="195.562" r="16.113"/>
		</g>
	</g>
	<g>
	</g>
	<g>
	</g>
	<g>
	</g>
	<g>
	</g>
	<g>
	</g>
	<g>
	</g>
	<g>
	</g>
	<g>
	</g>
	<g>
	</g>
	<g>
	</g>
	<g>
	</g>
	<g>
	</g>
	<g>
	</g>
	<g>
	</g>
	<g>
	</g>
</g>
<g>
</g>
<g>
</g>
<g>
</g>
<g>
</g>
<g>
</g>
<g>
</g>
<g>
</g>
<g>
</g>
<g>
</g>
<g>
</g>
<g>
</g>
<g>
</g>
<g>
</g>
<g>
</g>
<g>
</g>
</svg>
