<?xml version="1.0" encoding="iso-8859-1"?>
<!-- Generator: Adobe Illustrator 19.1.0, SVG Export Plug-In . SVG Version: 6.00 Build 0)  -->
<svg version="1.1" id="Capa_1" xmlns="http://www.w3.org/2000/svg" xmlns:xlink="http://www.w3.org/1999/xlink" x="0px" y="0px"
	 viewBox="0 0 534.018 534.018" style="enable-background:new 0 0 534.018 534.018;" xml:space="preserve">
<g>
	<g>
		<path d="M438.008,60.752C408.427,31.173,332.445,0,276.651,0S142.217,31.173,112.638,60.752c0,0-59.158,60.715-59.158,115.202
			s29.579,91.851,29.579,91.851c5.545,5.545,21.785,25.682,29.578,29.578s29.579,0,29.579-29.578c0,0,1.558-10.899,0-29.579
			c-1.557-18.682-29.579-29.579-29.579-59.159c0-29.578,59.158-88.736,59.158-88.736s35.778-24.618,59.158-29.578s59.159,0,59.159,0
			s75.807,17.357,98.124,50.833c22.317,33.475,20.19,97.062,20.19,126.642s-31.173,80.944-59.158,88.737
			c-27.985,7.793-34.537,14.525-59.156,0c-24.62-14.524-27.743-27.742-27.743-27.742c14.153-43.069,27.743-91.8,27.743-120.154
			c0-59.158-29.579-59.158-29.579-59.158s2.833-2.835-29.579,0s-59.158,29.579-59.158,59.158s0,88.738,0,88.738L142.218,474.86
			v29.577c0,0,0,29.581,29.578,29.581c29.579,0,29.579,0,29.579-29.581c0-29.577,29.578-118.313,29.578-118.313
			s3.829-9.578,9.536-24.813c0,0,36.162,20.385,58.479,24.813c22.317,4.427,66.951-6.733,100.428-29.049
			c33.474-22.317,66.951-78.109,78.109-111.586C488.663,212.012,467.586,90.332,438.008,60.752z"/>
	</g>
	<g>
	</g>
	<g>
	</g>
	<g>
	</g>
	<g>
	</g>
	<g>
	</g>
	<g>
	</g>
	<g>
	</g>
	<g>
	</g>
	<g>
	</g>
	<g>
	</g>
	<g>
	</g>
	<g>
	</g>
	<g>
	</g>
	<g>
	</g>
	<g>
	</g>
</g>
<g>
</g>
<g>
</g>
<g>
</g>
<g>
</g>
<g>
</g>
<g>
</g>
<g>
</g>
<g>
</g>
<g>
</g>
<g>
</g>
<g>
</g>
<g>
</g>
<g>
</g>
<g>
</g>
<g>
</g>
</svg>
