<?xml version="1.0" encoding="iso-8859-1"?>
<!-- Generator: Adobe Illustrator 19.1.0, SVG Export Plug-In . SVG Version: 6.00 Build 0)  -->
<svg version="1.1" id="Capa_1" xmlns="http://www.w3.org/2000/svg" xmlns:xlink="http://www.w3.org/1999/xlink" x="0px" y="0px"
	 viewBox="0 0 491.856 491.856" style="enable-background:new 0 0 491.856 491.856;" xml:space="preserve">
<g>
	<g>
		<g>
			<rect x="116.366" y="17.994" width="259.125" height="155.955"/>
			<path d="M463.344,101.969h-73.457v83.975H101.971v-83.975H28.514C12.766,101.969,0,109.13,0,117.964v243.93
				c0,8.834,12.765,15.996,28.514,15.996h73.457v-71.98h287.916v71.98h73.457c15.748,0,28.512-7.16,28.512-15.996v-243.93
				C491.856,109.131,479.092,101.969,463.344,101.969z"/>
			<path d="M116.366,317.908v155.954h259.125V317.908H116.366z M353.898,424.378H137.961v-5.25h215.938L353.898,424.378
				L353.898,424.378z M353.898,383.137H137.961v-5.248h215.938L353.898,383.137L353.898,383.137z"/>
		</g>
	</g>
	<g>
	</g>
	<g>
	</g>
	<g>
	</g>
	<g>
	</g>
	<g>
	</g>
	<g>
	</g>
	<g>
	</g>
	<g>
	</g>
	<g>
	</g>
	<g>
	</g>
	<g>
	</g>
	<g>
	</g>
	<g>
	</g>
	<g>
	</g>
	<g>
	</g>
</g>
<g>
</g>
<g>
</g>
<g>
</g>
<g>
</g>
<g>
</g>
<g>
</g>
<g>
</g>
<g>
</g>
<g>
</g>
<g>
</g>
<g>
</g>
<g>
</g>
<g>
</g>
<g>
</g>
<g>
</g>
</svg>
