<?xml version="1.0" encoding="iso-8859-1"?>
<!-- Generator: Adobe Illustrator 19.1.0, SVG Export Plug-In . SVG Version: 6.00 Build 0)  -->
<svg version="1.1" id="Capa_1" xmlns="http://www.w3.org/2000/svg" xmlns:xlink="http://www.w3.org/1999/xlink" x="0px" y="0px"
	 viewBox="0 0 491.858 491.858" style="enable-background:new 0 0 491.858 491.858;" xml:space="preserve">
<g>
	<g>
		<g>
			<path d="M222.97,114.836c7.426,0,13.445,6.02,13.445,13.445v235.295c0,7.425-6.019,13.445-13.445,13.445L4.482,256.011
				c0,0-10.084-10.084,0-20.166C14.565,225.76,222.97,114.836,222.97,114.836z"/>
			<path d="M478.411,114.835c7.426,0,13.447,6.02,13.447,13.447v235.294c0,7.426-6.02,13.447-13.447,13.447l-218.487-121.01
				c0,0-10.084-10.084,0-20.167C270.008,225.76,478.411,114.835,478.411,114.835z"/>
		</g>
	</g>
	<g>
	</g>
	<g>
	</g>
	<g>
	</g>
	<g>
	</g>
	<g>
	</g>
	<g>
	</g>
	<g>
	</g>
	<g>
	</g>
	<g>
	</g>
	<g>
	</g>
	<g>
	</g>
	<g>
	</g>
	<g>
	</g>
	<g>
	</g>
	<g>
	</g>
</g>
<g>
</g>
<g>
</g>
<g>
</g>
<g>
</g>
<g>
</g>
<g>
</g>
<g>
</g>
<g>
</g>
<g>
</g>
<g>
</g>
<g>
</g>
<g>
</g>
<g>
</g>
<g>
</g>
<g>
</g>
</svg>
