<?xml version="1.0" encoding="iso-8859-1"?>
<!-- Generator: Adobe Illustrator 19.1.0, SVG Export Plug-In . SVG Version: 6.00 Build 0)  -->
<svg version="1.1" id="Capa_1" xmlns="http://www.w3.org/2000/svg" xmlns:xlink="http://www.w3.org/1999/xlink" x="0px" y="0px"
	 viewBox="0 0 492.189 492.189" style="enable-background:new 0 0 492.189 492.189;" xml:space="preserve">
<g>
	<g>
		<g>
			<path d="M10.998,256.958c13.017,3.232,34.841-55.978,34.841-55.978c11.823-51.125,43.541-97.591,92.041-126.807
				c34.119-20.552,71.9-29.776,108.965-28.76v-0.261c63.951-1.163,126.842,28.274,166.339,82.772l-31.513,18.946
				c-2.903,1.744-3.836,5.506-2.096,8.407c0,0,92.224,55.336,98.526,56.909c6.305,1.572,7.875-4.732,7.875-4.732l-4.032-113.713
				c-1.744-2.899-5.505-3.836-8.404-2.096l-22.814,13.715C402.713,36.912,324.803-0.089,245.604,1.482v0.243
				c-44.352-0.783-89.455,10.469-130.254,35.046C53.016,74.322,13.477,135.275,1.151,201.601
				C-0.674,205.276-2.019,253.73,10.998,256.958z"/>
			<path d="M481.227,235.453c-13.012-3.244-34.892,55.943-34.892,55.943c-11.873,51.116-43.638,97.549-92.164,126.721
				c-34.137,20.52-71.928,29.709-108.993,28.654v0.268c-63.818,1.098-126.562-28.264-166.035-82.619l31.498-18.974
				c2.899-1.746,3.832-5.512,2.088-8.409c0,0-92.275-55.248-98.58-56.815c-6.307-1.565-7.869,4.74-7.869,4.74l4.14,113.707
				c1.745,2.897,5.509,3.833,8.407,2.088l22.799-13.737c48.079,68.401,126.024,105.33,205.22,103.682v-0.239
				c44.2,0.742,89.14-10.475,129.82-34.926c62.372-37.489,101.969-98.402,114.36-164.72
				C492.852,287.146,494.238,238.694,481.227,235.453z"/>
		</g>
	</g>
	<g>
	</g>
	<g>
	</g>
	<g>
	</g>
	<g>
	</g>
	<g>
	</g>
	<g>
	</g>
	<g>
	</g>
	<g>
	</g>
	<g>
	</g>
	<g>
	</g>
	<g>
	</g>
	<g>
	</g>
	<g>
	</g>
	<g>
	</g>
	<g>
	</g>
</g>
<g>
</g>
<g>
</g>
<g>
</g>
<g>
</g>
<g>
</g>
<g>
</g>
<g>
</g>
<g>
</g>
<g>
</g>
<g>
</g>
<g>
</g>
<g>
</g>
<g>
</g>
<g>
</g>
<g>
</g>
</svg>
