<?xml version="1.0" encoding="iso-8859-1"?>
<!-- Generator: Adobe Illustrator 19.1.0, SVG Export Plug-In . SVG Version: 6.00 Build 0)  -->
<svg version="1.1" id="Capa_1" xmlns="http://www.w3.org/2000/svg" xmlns:xlink="http://www.w3.org/1999/xlink" x="0px" y="0px"
	 viewBox="0 0 502.788 502.788" style="enable-background:new 0 0 502.788 502.788;" xml:space="preserve">
<g>
	<g>
		<g>
			<path d="M497.323,488.214c0,8.048-6.525,14.574-14.574,14.574H20.039c-8.048,0-14.574-6.525-14.574-14.574V14.574
				C5.465,6.525,11.99,0,20.039,0h462.71c8.048,0,14.574,6.525,14.574,14.574V488.214z"/>
			<circle style="fill:#FFFFFF;" cx="63.078" cy="445.061" r="47.286"/>
			<path style="fill:#FFFFFF;" d="M182.309,481.086h-20c0-43.65-11.687-77.461-34.736-100.492
				c-23.051-23.034-56.89-34.714-100.577-34.714v-20C125.7,325.88,182.309,382.451,182.309,481.086z"/>
			<path style="fill:#FFFFFF;" d="M268.306,479.193h-20c0-70.515-19.023-125.279-56.543-162.772
				c-37.522-37.494-92.329-56.506-162.9-56.506v-20c76.065,0,135.629,20.98,177.037,62.358
				C247.31,343.654,268.307,403.178,268.306,479.193z"/>
			<path style="fill:#FFFFFF;" d="M354.301,477.288h-20c0-97.375-26.36-173.09-78.35-225.041
				c-51.99-51.953-127.763-78.294-225.213-78.294v-20c51.011,0,97.188,7.143,137.25,21.232
				c40.075,14.093,74.426,35.261,102.101,62.915c27.675,27.655,48.858,61.982,62.963,102.03
				C347.151,380.165,354.301,426.311,354.301,477.288z"/>
		</g>
	</g>
	<g>
	</g>
	<g>
	</g>
	<g>
	</g>
	<g>
	</g>
	<g>
	</g>
	<g>
	</g>
	<g>
	</g>
	<g>
	</g>
	<g>
	</g>
	<g>
	</g>
	<g>
	</g>
	<g>
	</g>
	<g>
	</g>
	<g>
	</g>
	<g>
	</g>
</g>
<g>
</g>
<g>
</g>
<g>
</g>
<g>
</g>
<g>
</g>
<g>
</g>
<g>
</g>
<g>
</g>
<g>
</g>
<g>
</g>
<g>
</g>
<g>
</g>
<g>
</g>
<g>
</g>
<g>
</g>
</svg>
