<?xml version="1.0" encoding="iso-8859-1"?>
<!-- Generator: Adobe Illustrator 19.1.0, SVG Export Plug-In . SVG Version: 6.00 Build 0)  -->
<svg version="1.1" id="Capa_1" xmlns="http://www.w3.org/2000/svg" xmlns:xlink="http://www.w3.org/1999/xlink" x="0px" y="0px"
	 viewBox="0 0 493.225 493.225" style="enable-background:new 0 0 493.225 493.225;" xml:space="preserve">
<g>
	<g>
		<path d="M246.613,0.001C110.412,0.001,0,110.412,0,246.613c0,64.084,24.448,122.452,64.518,166.304v0.002h0.002
			c45.094,49.346,109.976,80.305,182.092,80.305c136.2,0,246.613-110.412,246.613-246.613S382.812,0.001,246.613,0.001z
			 M343.238,128.734c21.127,0,38.256,17.128,38.256,38.256s-17.129,38.256-38.256,38.256s-38.256-17.128-38.256-38.256
			S322.111,128.734,343.238,128.734z M146.495,128.734c21.127,0,38.256,17.128,38.256,38.256s-17.129,38.256-38.256,38.256
			s-38.256-17.128-38.256-38.256S125.368,128.734,146.495,128.734z M354.124,370.564c-26.055-30.125-64.557-49.186-107.512-49.186
			s-81.456,19.061-107.512,49.186H92.013c31.553-52.393,88.981-87.441,154.6-87.441s123.046,35.048,154.6,87.441H354.124z"/>
	</g>
	<g>
	</g>
	<g>
	</g>
	<g>
	</g>
	<g>
	</g>
	<g>
	</g>
	<g>
	</g>
	<g>
	</g>
	<g>
	</g>
	<g>
	</g>
	<g>
	</g>
	<g>
	</g>
	<g>
	</g>
	<g>
	</g>
	<g>
	</g>
	<g>
	</g>
</g>
<g>
</g>
<g>
</g>
<g>
</g>
<g>
</g>
<g>
</g>
<g>
</g>
<g>
</g>
<g>
</g>
<g>
</g>
<g>
</g>
<g>
</g>
<g>
</g>
<g>
</g>
<g>
</g>
<g>
</g>
</svg>
