<?xml version="1.0" encoding="iso-8859-1"?>
<!-- Generator: Adobe Illustrator 19.1.0, SVG Export Plug-In . SVG Version: 6.00 Build 0)  -->
<svg version="1.1" id="Capa_1" xmlns="http://www.w3.org/2000/svg" xmlns:xlink="http://www.w3.org/1999/xlink" x="0px" y="0px"
	 viewBox="0 0 502.788 502.788" style="enable-background:new 0 0 502.788 502.788;" xml:space="preserve">
<g>
	<g>
		<g>
			<path d="M59.856,0v199.519c0,8.816,7.146,15.962,15.962,15.962h351.154c8.816,0,15.963-7.146,15.963-15.962V0H59.856z"/>
			<path d="M480.842,0h-25.937v211.49c0,8.815-7.147,15.962-15.962,15.962H63.847c-8.816,0-15.962-7.146-15.962-15.962V0H21.948
				C13.132,0,5.986,7.146,5.986,15.962v470.864c0,8.815,7.146,15.962,15.962,15.962h144.318v-88.675
				c0-3.918,3.177-7.095,7.095-7.095h156.067c3.919,0,7.094,3.177,7.094,7.095v88.675h144.319c8.815,0,15.962-7.147,15.962-15.962
				V15.962C496.803,7.146,489.656,0,480.842,0z"/>
			<path d="M325.882,502.788v-77.591c0-3.427-2.781-6.207-6.208-6.207H183.115c-3.428,0-6.207,2.78-6.207,6.207v77.591H325.882z"/>
		</g>
	</g>
	<g>
	</g>
	<g>
	</g>
	<g>
	</g>
	<g>
	</g>
	<g>
	</g>
	<g>
	</g>
	<g>
	</g>
	<g>
	</g>
	<g>
	</g>
	<g>
	</g>
	<g>
	</g>
	<g>
	</g>
	<g>
	</g>
	<g>
	</g>
	<g>
	</g>
</g>
<g>
</g>
<g>
</g>
<g>
</g>
<g>
</g>
<g>
</g>
<g>
</g>
<g>
</g>
<g>
</g>
<g>
</g>
<g>
</g>
<g>
</g>
<g>
</g>
<g>
</g>
<g>
</g>
<g>
</g>
</svg>
