<?xml version="1.0" encoding="iso-8859-1"?>
<!-- Generator: Adobe Illustrator 19.1.0, SVG Export Plug-In . SVG Version: 6.00 Build 0)  -->
<svg version="1.1" id="Capa_1" xmlns="http://www.w3.org/2000/svg" xmlns:xlink="http://www.w3.org/1999/xlink" x="0px" y="0px"
	 viewBox="0 0 537.34 537.34" style="enable-background:new 0 0 537.34 537.34;" xml:space="preserve">
<g>
	<g>
		<path d="M425.929,374.939c-17.086,0-32.933,5.29-46.012,14.305l-70.745-79.494L503.306,32.059C511.597,20.207,503.82,0,503.82,0
			L268.67,264.238L33.522,0c0,0-7.779,20.209,0.511,32.059L228.167,309.75l-70.744,79.495c-13.08-9.015-28.926-14.305-46.012-14.305
			c-44.844,0-81.2,36.357-81.2,81.2s36.356,81.2,81.2,81.2c35.417,0,65.523-22.686,76.62-54.313l80.637-115.344l80.638,115.344
			c11.1,31.627,41.204,54.313,76.623,54.313c44.843,0,81.199-36.357,81.199-81.2S470.772,374.939,425.929,374.939z M108.527,500.542
			c-25.715,0-46.561-20.848-46.561-46.562c0-25.715,20.846-46.563,46.561-46.563s46.563,20.848,46.563,46.563
			C155.089,479.695,134.242,500.542,108.527,500.542z M268.67,314.293c-6.429,0-11.641-5.211-11.641-11.641
			c0-6.428,5.211-11.641,11.641-11.641s11.641,5.212,11.641,11.641C280.31,309.082,275.099,314.293,268.67,314.293z M422.82,500.542
			c-25.715,0-46.561-20.848-46.561-46.562c0-25.715,20.846-46.563,46.561-46.563c25.716,0,46.562,20.848,46.562,46.563
			C469.383,479.695,448.536,500.542,422.82,500.542z"/>
	</g>
	<g>
	</g>
	<g>
	</g>
	<g>
	</g>
	<g>
	</g>
	<g>
	</g>
	<g>
	</g>
	<g>
	</g>
	<g>
	</g>
	<g>
	</g>
	<g>
	</g>
	<g>
	</g>
	<g>
	</g>
	<g>
	</g>
	<g>
	</g>
	<g>
	</g>
</g>
<g>
</g>
<g>
</g>
<g>
</g>
<g>
</g>
<g>
</g>
<g>
</g>
<g>
</g>
<g>
</g>
<g>
</g>
<g>
</g>
<g>
</g>
<g>
</g>
<g>
</g>
<g>
</g>
<g>
</g>
</svg>
