<?xml version="1.0" encoding="iso-8859-1"?>
<!-- Generator: Adobe Illustrator 19.1.0, SVG Export Plug-In . SVG Version: 6.00 Build 0)  -->
<svg version="1.1" id="Capa_1" xmlns="http://www.w3.org/2000/svg" xmlns:xlink="http://www.w3.org/1999/xlink" x="0px" y="0px"
	 viewBox="0 0 535.579 535.579" style="enable-background:new 0 0 535.579 535.579;" xml:space="preserve">
<g>
	<g>
		<path d="M419.942,365.167c-31.622,0-59.2,17.241-73.904,42.82l-156.417-97.954c7.126-12.454,11.22-26.868,11.22-42.244
			c0-15.237-4.019-29.526-11.024-41.901l158.676-94.279c15.198,23.35,41.51,38.802,71.448,38.802
			c47.058,0,85.204-38.147,85.204-85.206C505.146,38.149,467,0,419.942,0c-47.058,0-85.207,38.149-85.207,85.206
			c0,12.771,2.828,24.873,7.864,35.748l-159.528,94.783c-15.583-20.158-39.985-33.152-67.434-33.152
			c-47.058,0-85.206,38.149-85.206,85.206s38.149,85.206,85.206,85.206c27.312,0,51.605-12.866,67.197-32.85l157.884,98.873
			c-3.846,9.707-5.982,20.277-5.982,31.355c0,47.057,38.149,85.204,85.207,85.204c47.058,0,85.204-38.148,85.204-85.204
			C505.146,403.315,467,365.167,419.942,365.167z"/>
	</g>
	<g>
	</g>
	<g>
	</g>
	<g>
	</g>
	<g>
	</g>
	<g>
	</g>
	<g>
	</g>
	<g>
	</g>
	<g>
	</g>
	<g>
	</g>
	<g>
	</g>
	<g>
	</g>
	<g>
	</g>
	<g>
	</g>
	<g>
	</g>
	<g>
	</g>
</g>
<g>
</g>
<g>
</g>
<g>
</g>
<g>
</g>
<g>
</g>
<g>
</g>
<g>
</g>
<g>
</g>
<g>
</g>
<g>
</g>
<g>
</g>
<g>
</g>
<g>
</g>
<g>
</g>
<g>
</g>
</svg>
