<?xml version="1.0" encoding="iso-8859-1"?>
<!-- Generator: Adobe Illustrator 19.1.0, SVG Export Plug-In . SVG Version: 6.00 Build 0)  -->
<svg version="1.1" id="Capa_1" xmlns="http://www.w3.org/2000/svg" xmlns:xlink="http://www.w3.org/1999/xlink" x="0px" y="0px"
	 viewBox="0 0 491.858 491.858" style="enable-background:new 0 0 491.858 491.858;" xml:space="preserve">
<g>
	<g>
		<path d="M245.929,0C110.106,0,0,110.106,0,245.929s110.106,245.929,245.929,245.929s245.929-110.106,245.929-245.929
			S381.752,0,245.929,0z M346.536,145.321c18.521,0,33.535,15.014,33.535,33.536s-15.013,33.535-33.535,33.535
			S313,197.378,313,178.858S328.014,145.321,346.536,145.321z M145.321,145.321c18.521,0,33.536,15.014,33.536,33.536
			s-15.014,33.535-33.536,33.535s-33.536-15.014-33.536-33.535S126.801,145.321,145.321,145.321z M245.929,426.277
			c-76.141,0-140.547-50.23-161.898-119.361h323.794C386.475,376.046,322.07,426.277,245.929,426.277z"/>
	</g>
	<g>
	</g>
	<g>
	</g>
	<g>
	</g>
	<g>
	</g>
	<g>
	</g>
	<g>
	</g>
	<g>
	</g>
	<g>
	</g>
	<g>
	</g>
	<g>
	</g>
	<g>
	</g>
	<g>
	</g>
	<g>
	</g>
	<g>
	</g>
	<g>
	</g>
</g>
<g>
</g>
<g>
</g>
<g>
</g>
<g>
</g>
<g>
</g>
<g>
</g>
<g>
</g>
<g>
</g>
<g>
</g>
<g>
</g>
<g>
</g>
<g>
</g>
<g>
</g>
<g>
</g>
<g>
</g>
</svg>
