<?xml version="1.0" encoding="iso-8859-1"?>
<!-- Generator: Adobe Illustrator 19.1.0, SVG Export Plug-In . SVG Version: 6.00 Build 0)  -->
<svg version="1.1" id="Capa_1" xmlns="http://www.w3.org/2000/svg" xmlns:xlink="http://www.w3.org/1999/xlink" x="0px" y="0px"
	 viewBox="0 0 490.663 490.663" style="enable-background:new 0 0 490.663 490.663;" xml:space="preserve">
<g>
	<g>
		<path d="M466.128,233.833h-53.446l27.492-27.492c5.987-5.989,5.987-15.696,0-21.684c-5.99-5.987-15.696-5.987-21.684,0
			l-43.368,43.37c-1.693,1.692-2.89,3.686-3.625,5.806h-101.87l82.584-114.999h61.788c8.468,0,15.334-6.864,15.334-15.333
			s-6.865-15.333-15.334-15.333H374.23l35.283-49.132c4.939-6.879,3.366-16.458-3.511-21.399c-6.879-4.938-16.46-3.366-21.399,3.511
			l-31.939,44.475v-38.79c0-8.468-6.864-15.333-15.333-15.333s-15.333,6.864-15.333,15.333v76.667c0,1.405,0.205,2.758,0.557,4.049
			l-79.977,111.37l-74.472-103.703c0.353-1.291,0.559-2.645,0.559-4.049V34.502c0-8.468-6.865-15.333-15.334-15.333
			c-8.468,0-15.333,6.864-15.333,15.333v38.789L106.06,28.816c-4.94-6.879-14.52-8.45-21.4-3.512
			c-6.878,4.94-8.45,14.52-3.511,21.399l35.284,49.132H76.665c-8.468,0-15.333,6.864-15.333,15.333s6.865,15.333,15.333,15.333
			h61.788l77.078,107.332h-93.733c-0.735-2.12-1.932-4.115-3.625-5.806L74.807,184.66c-5.99-5.987-15.696-5.987-21.685,0
			c-5.986,5.989-5.986,15.696,0,21.684l27.492,27.492h-56.08C10.984,233.833,0,240.7,0,249.167c0,8.468,10.984,15.333,24.533,15.333
			h53.449l-24.86,24.86c-5.986,5.989-5.986,15.696,0,21.684c5.99,5.987,15.696,5.987,21.685,0l43.366-43.368
			c0.97-0.972,1.766-2.044,2.42-3.177h89.253l-71.573,99.666H76.665c-8.468,0-15.333,6.864-15.333,15.334
			c0,8.468,6.865,15.333,15.333,15.333h39.587L80.51,444.601c-4.938,6.879-3.366,16.46,3.511,21.399
			c6.879,4.939,16.458,3.368,21.399-3.511l32.577-45.365v39.039c0,8.47,6.865,15.334,15.333,15.334s15.334-6.864,15.334-15.334
			v-76.665c0-1.472-0.219-2.888-0.606-4.235l74.519-103.769l80.025,111.435c-0.387,1.347-0.606,2.763-0.606,4.235v76.665
			c0,8.47,6.864,15.334,15.333,15.334s15.333-6.864,15.333-15.334v-39.035l32.577,45.364c4.94,6.88,14.52,8.451,21.399,3.511
			c6.879-4.939,8.45-14.52,3.512-21.399l-35.742-49.77h39.587c8.468,0,15.334-6.864,15.334-15.333
			c0-8.47-6.865-15.334-15.334-15.334H352.39l-77.08-107.331h97.391c0.656,1.133,1.45,2.205,2.42,3.177l43.368,43.368
			c5.99,5.987,15.696,5.987,21.684,0c5.987-5.99,5.987-15.696,0-21.684l-24.861-24.86h50.816c13.55,0,24.535-6.864,24.535-15.333
			C490.664,240.7,479.679,233.833,466.128,233.833z"/>
	</g>
	<g>
	</g>
	<g>
	</g>
	<g>
	</g>
	<g>
	</g>
	<g>
	</g>
	<g>
	</g>
	<g>
	</g>
	<g>
	</g>
	<g>
	</g>
	<g>
	</g>
	<g>
	</g>
	<g>
	</g>
	<g>
	</g>
	<g>
	</g>
	<g>
	</g>
</g>
<g>
</g>
<g>
</g>
<g>
</g>
<g>
</g>
<g>
</g>
<g>
</g>
<g>
</g>
<g>
</g>
<g>
</g>
<g>
</g>
<g>
</g>
<g>
</g>
<g>
</g>
<g>
</g>
<g>
</g>
</svg>
