<?xml version="1.0" encoding="iso-8859-1"?>
<!-- Generator: Adobe Illustrator 19.1.0, SVG Export Plug-In . SVG Version: 6.00 Build 0)  -->
<svg version="1.1" id="Capa_1" xmlns="http://www.w3.org/2000/svg" xmlns:xlink="http://www.w3.org/1999/xlink" x="0px" y="0px"
	 viewBox="0 0 534.563 534.563" style="enable-background:new 0 0 534.563 534.563;" xml:space="preserve">
<g>
	<g>
		<g>
			<rect x="154.286" y="226.886" width="42.652" height="307.677"/>
			<rect x="206.767" y="133.245" width="42.651" height="401.318"/>
			<rect x="259.249" y="173.377" width="42.65" height="361.186"/>
			<rect x="364.212" y="427.544" width="42.651" height="107.018"/>
			<rect x="311.73" y="52.981" width="42.651" height="481.582"/>
			<path d="M324.67,0l-32.069,9.266c-0.701,0.706-0.701,1.85,0,2.555l10.38,4.178l-48.849,52.875l-23.676-22.148l-6.654-6.227
				l-6.189,6.698l-89.914,97.324l6.655,6.227l89.914-97.323l23.074,22.803l6.655,6.227l55.944-60.556l4.886,12.293
				c0.701,0.704,1.84,0.704,2.539,0c0,0,9.209-30.356,9.209-32.273S324.67,0,324.67,0z"/>
		</g>
	</g>
	<g>
	</g>
	<g>
	</g>
	<g>
	</g>
	<g>
	</g>
	<g>
	</g>
	<g>
	</g>
	<g>
	</g>
	<g>
	</g>
	<g>
	</g>
	<g>
	</g>
	<g>
	</g>
	<g>
	</g>
	<g>
	</g>
	<g>
	</g>
	<g>
	</g>
</g>
<g>
</g>
<g>
</g>
<g>
</g>
<g>
</g>
<g>
</g>
<g>
</g>
<g>
</g>
<g>
</g>
<g>
</g>
<g>
</g>
<g>
</g>
<g>
</g>
<g>
</g>
<g>
</g>
<g>
</g>
</svg>
