<?xml version="1.0" encoding="iso-8859-1"?>
<!-- Generator: Adobe Illustrator 19.1.0, SVG Export Plug-In . SVG Version: 6.00 Build 0)  -->
<svg version="1.1" id="Capa_1" xmlns="http://www.w3.org/2000/svg" xmlns:xlink="http://www.w3.org/1999/xlink" x="0px" y="0px"
	 viewBox="0 0 537.679 537.679" style="enable-background:new 0 0 537.679 537.679;" xml:space="preserve">
<g>
	<g>
		<g>
			<path d="M114.648,310.333c0,29.803-5.369,53.971-11.993,53.971h-56.97c-6.624,0-11.993-24.168-11.993-53.971V53.971
				C33.692,24.164,39.061,0,45.685,0h56.972c6.624,0,11.993,24.164,11.993,53.971v256.362H114.648z"/>
			<path d="M450.017,375.768h-69.235c1.116,4.32,1.771,8.824,1.771,13.491v94.448c0,29.81-24.164,53.972-53.971,53.972
				l-67.463-148.42c0-4.668-121.434-37.656-121.434-67.463V65.435c0-29.803,24.163-53.971,53.971-53.971h256.362
				c29.808,0,53.97,24.168,53.97,53.971v256.361C503.987,351.604,479.825,375.768,450.017,375.768z"/>
		</g>
	</g>
	<g>
	</g>
	<g>
	</g>
	<g>
	</g>
	<g>
	</g>
	<g>
	</g>
	<g>
	</g>
	<g>
	</g>
	<g>
	</g>
	<g>
	</g>
	<g>
	</g>
	<g>
	</g>
	<g>
	</g>
	<g>
	</g>
	<g>
	</g>
	<g>
	</g>
</g>
<g>
</g>
<g>
</g>
<g>
</g>
<g>
</g>
<g>
</g>
<g>
</g>
<g>
</g>
<g>
</g>
<g>
</g>
<g>
</g>
<g>
</g>
<g>
</g>
<g>
</g>
<g>
</g>
<g>
</g>
</svg>
