<?xml version="1.0" encoding="iso-8859-1"?>
<!-- Generator: Adobe Illustrator 19.1.0, SVG Export Plug-In . SVG Version: 6.00 Build 0)  -->
<svg version="1.1" id="Capa_1" xmlns="http://www.w3.org/2000/svg" xmlns:xlink="http://www.w3.org/1999/xlink" x="0px" y="0px"
	 viewBox="0 0 491.859 491.859" style="enable-background:new 0 0 491.859 491.859;" xml:space="preserve">
<g>
	<g>
		<path d="M251.393,103.896c0-0.019,0.001-0.039,0.001-0.058v-21.86c0-6.037-2.447-10.93-5.465-10.93
			c-3.018,0-5.465,4.893-5.465,10.93v21.86c0,0.019,0.001,0.039,0.001,0.058C122.412,106.322,3.289,188.427,0,305.625h2.219
			c0,0,23.004-37.834,79.757-37.835s79.757,37.835,79.757,37.835s13.675-34.859,76.13-37.652l-0.132,114.583
			c0,9.055-7.34,16.395-16.395,16.395s-16.395-7.34-16.395-16.395v-5.465c0-6.037-4.893-10.93-10.93-10.93s-10.93,4.893-10.93,10.93
			c0,0,0.628,15.074,1.698,16.763c4.819,15.613,19.363,26.957,36.558,26.957c20.709,0,37.562-16.456,38.224-37.005
			c0.113-0.68,0.182-1.376,0.182-2.091V268.331c57.552,4.594,70.382,37.295,70.382,37.295s23.006-37.835,79.757-37.835
			c56.753,0,79.759,37.835,79.759,37.835h2.218C488.569,188.427,369.446,106.322,251.393,103.896z"/>
	</g>
	<g>
	</g>
	<g>
	</g>
	<g>
	</g>
	<g>
	</g>
	<g>
	</g>
	<g>
	</g>
	<g>
	</g>
	<g>
	</g>
	<g>
	</g>
	<g>
	</g>
	<g>
	</g>
	<g>
	</g>
	<g>
	</g>
	<g>
	</g>
	<g>
	</g>
</g>
<g>
</g>
<g>
</g>
<g>
</g>
<g>
</g>
<g>
</g>
<g>
</g>
<g>
</g>
<g>
</g>
<g>
</g>
<g>
</g>
<g>
</g>
<g>
</g>
<g>
</g>
<g>
</g>
<g>
</g>
</svg>
