<?xml version="1.0" encoding="iso-8859-1"?>
<!-- Generator: Adobe Illustrator 19.1.0, SVG Export Plug-In . SVG Version: 6.00 Build 0)  -->
<svg version="1.1" id="Capa_1" xmlns="http://www.w3.org/2000/svg" xmlns:xlink="http://www.w3.org/1999/xlink" x="0px" y="0px"
	 viewBox="0 0 481.265 481.265" style="enable-background:new 0 0 481.265 481.265;" xml:space="preserve">
<g>
	<g>
		<path d="M480.901,140.91c-2.756-48.496-14.014-79.27-37.645-102.902h-0.001c-19.464-19.466-58.76-41.005-105.439-37.663
			c-14.863,1.065-38.858,10.323-92.929,72.988c-26.127,30.279-47.802,59.796-51.47,64.834c-7.457,9.115-6.208,22.783,3.726,40.675
			c5.536,9.971,13.623,21.155,24.13,33.414l-8.977,8.977c-12.447-10.705-23.753-18.874-33.782-24.387
			c-17.15-9.428-30.413-10.777-39.49-4.038c-6.234,3.883-36.638,23.123-67.204,47.722c-50.319,40.498-73.024,72.216-71.456,99.82
			c2.755,48.496,14.014,79.271,37.644,102.902c18.104,18.107,53.361,38.015,95.775,38.013c3.181,0,6.408-0.112,9.666-0.346
			c14.864-1.063,38.859-10.321,92.931-72.987c26.128-30.282,47.805-59.802,51.47-64.836c7.456-9.115,6.207-22.783-3.727-40.675
			c-5.309-9.563-12.968-20.242-22.854-31.914l9.201-9.201c11.855,10.074,22.659,17.822,32.283,23.112
			c10.003,5.498,18.683,8.249,25.982,8.248c5.214,0,9.724-1.403,13.506-4.211c6.231-3.881,36.638-23.121,67.205-47.723
			C459.764,200.235,482.47,168.516,480.901,140.91z M252.224,325.686c-7.924,10.633-25.338,33.52-45.048,56.392
			c-49.555,57.505-65.866,60.039-66.513,60.109c-31.254,2.238-60.823-12.173-75.074-26.173h-0.002
			c-12.049-12-23.573-29.95-26.286-77.707c-0.534-9.4,13.994-32.673,56.696-67.088c24.019-19.357,48.583-35.636,59.159-42.418
			c4.614,2.005,14.088,7.155,29.475,20.119l-83.933,83.922c-18.654,18.653-26.44,41.097-17.396,50.141l16.375,16.371
			c9.044,9.044,31.491,1.258,50.145-17.397l83.767-83.767C245.097,312.098,250.1,321,252.224,325.686z M385.268,210.129
			c-24.019,19.357-48.583,35.594-59.158,42.376c-4.459-1.938-13.467-6.841-27.962-18.877l88.071-88.071
			c18.652-18.653,26.44-41.101,17.396-50.144L387.24,79.038c-9.043-9.044-31.492-1.258-50.145,17.396l-88.154,88.154
			c-12.404-14.777-17.698-24.158-19.898-29.011c7.924-10.633,25.339-33.519,45.049-56.391
			c49.556-57.505,65.867-59.871,66.514-59.941c31.237-2.239,60.818,12.084,75.074,26.34c12.049,12.048,23.571,29.781,26.285,77.538
			C442.498,152.524,427.97,175.714,385.268,210.129z"/>
		<path d="M59.377,183.013h82.803c7.317,0,13.17-3.902,13.17-9.269v-2.429c0-5.366-5.853-9.302-13.17-9.302H59.377
			c-7.317,0-13.027,3.936-13.027,9.302v2.429C46.35,179.11,52.06,183.013,59.377,183.013z"/>
		<path d="M165.146,162.013h2.429c5.365,0,9.775-6.346,9.775-13.663V65.547c0-7.317-4.409-13.534-9.775-13.534h-2.429
			c-5.365,0-9.796,6.216-9.796,13.534v82.803C155.35,155.667,159.779,162.013,165.146,162.013z"/>
		<path d="M415.435,304.013h-82.802c-7.317,0-13.282,4.029-13.282,9.396v2.429c0,5.366,5.965,10.175,13.282,10.175h82.805
			c7.315,0,12.913-4.81,12.913-10.175v-2.429C428.35,308.042,422.752,304.013,415.435,304.013z"/>
		<path d="M309.667,326.013h-2.429c-5.367,0-9.888,5.473-9.888,12.79v82.805c0,7.315,4.521,13.405,9.888,13.405h2.429
			c5.365,0,9.683-6.091,9.683-13.405v-82.805C319.35,331.486,315.032,326.013,309.667,326.013z"/>
	</g>
	<g>
	</g>
	<g>
	</g>
	<g>
	</g>
	<g>
	</g>
	<g>
	</g>
	<g>
	</g>
	<g>
	</g>
	<g>
	</g>
	<g>
	</g>
	<g>
	</g>
	<g>
	</g>
	<g>
	</g>
	<g>
	</g>
	<g>
	</g>
	<g>
	</g>
</g>
<g>
</g>
<g>
</g>
<g>
</g>
<g>
</g>
<g>
</g>
<g>
</g>
<g>
</g>
<g>
</g>
<g>
</g>
<g>
</g>
<g>
</g>
<g>
</g>
<g>
</g>
<g>
</g>
<g>
</g>
</svg>
