<?xml version="1.0" encoding="iso-8859-1"?>
<!-- Generator: Adobe Illustrator 19.1.0, SVG Export Plug-In . SVG Version: 6.00 Build 0)  -->
<svg version="1.1" id="Capa_1" xmlns="http://www.w3.org/2000/svg" xmlns:xlink="http://www.w3.org/1999/xlink" x="0px" y="0px"
	 viewBox="0 0 495.725 495.725" style="enable-background:new 0 0 495.725 495.725;" xml:space="preserve">
<g>
	<g>
		<g>
			<path d="M347.461,125.755H26.819c-13.623,0-24.666,11.042-24.666,24.666v320.641c0,13.619,11.042,24.663,24.666,24.663h320.643
				c13.62,0,24.663-11.044,24.663-24.665V150.42C372.124,136.798,361.081,125.755,347.461,125.755z M205.031,306.118
				c0.38,1.48,0.606,3.023,0.606,4.622v36.999c0,10.215-8.281,18.496-18.499,18.496s-18.497-8.281-18.497-18.496V310.74
				c0-1.599,0.223-3.142,0.605-4.622c-11.386-6.309-19.104-18.434-19.104-32.374c0-20.432,16.564-36.997,36.996-36.997
				s36.997,16.565,36.997,36.997C224.135,287.684,216.42,299.808,205.031,306.118z"/>
			<path d="M366.603,0c-69.636,0-126.152,56.049-126.967,125.494h25.402c0.811-55.415,45.958-100.092,101.566-100.092
				S467.356,70.08,468.168,125.494h25.403C492.755,56.049,436.24,0,366.603,0z"/>
		</g>
	</g>
	<g>
	</g>
	<g>
	</g>
	<g>
	</g>
	<g>
	</g>
	<g>
	</g>
	<g>
	</g>
	<g>
	</g>
	<g>
	</g>
	<g>
	</g>
	<g>
	</g>
	<g>
	</g>
	<g>
	</g>
	<g>
	</g>
	<g>
	</g>
	<g>
	</g>
</g>
<g>
</g>
<g>
</g>
<g>
</g>
<g>
</g>
<g>
</g>
<g>
</g>
<g>
</g>
<g>
</g>
<g>
</g>
<g>
</g>
<g>
</g>
<g>
</g>
<g>
</g>
<g>
</g>
<g>
</g>
</svg>
