<?xml version="1.0" encoding="iso-8859-1"?>
<!-- Generator: Adobe Illustrator 19.1.0, SVG Export Plug-In . SVG Version: 6.00 Build 0)  -->
<svg version="1.1" id="Capa_1" xmlns="http://www.w3.org/2000/svg" xmlns:xlink="http://www.w3.org/1999/xlink" x="0px" y="0px"
	 viewBox="0 0 490.216 490.216" style="enable-background:new 0 0 490.216 490.216;" xml:space="preserve">
<g>
	<g>
		<g>
			<circle cx="245.107" cy="376.533" r="50.784"/>
			<path d="M141.865,328.093l-14.142-14.143c37.205-37.204,76.704-56.076,117.399-56.092c0.015,0,0.034,0,0.048,0
				c40.683,0,80.151,18.844,117.319,56.011l-14.143,14.143c-33.277-33.278-67.994-50.153-103.177-50.153c-0.015,0-0.025,0-0.041,0
				C209.929,277.873,175.185,294.773,141.865,328.093z"/>
			<path d="M77.999,261.392l-14.142-14.143c57.622-57.621,118.612-86.849,181.278-86.872c0.023,0,0.051,0,0.074,0
				c62.645,0,123.589,29.184,181.151,86.746l-14.143,14.143c-53.671-53.671-109.865-80.888-167.009-80.888c-0.025,0-0.042,0-0.066,0
				C187.97,180.398,131.735,207.656,77.999,261.392z"/>
			<path d="M14.142,194.687L0,180.544c38.679-38.679,79.104-68.273,120.15-87.96c41.036-19.683,83.09-29.67,124.995-29.685
				c0.031,0,0.065,0,0.096,0c41.875,0,83.889,9.957,124.882,29.596c41.035,19.659,81.439,49.225,120.093,87.877l-14.143,14.143
				C327.189,45.63,163.139,45.689,14.142,194.687z"/>
		</g>
	</g>
	<g>
	</g>
	<g>
	</g>
	<g>
	</g>
	<g>
	</g>
	<g>
	</g>
	<g>
	</g>
	<g>
	</g>
	<g>
	</g>
	<g>
	</g>
	<g>
	</g>
	<g>
	</g>
	<g>
	</g>
	<g>
	</g>
	<g>
	</g>
	<g>
	</g>
</g>
<g>
</g>
<g>
</g>
<g>
</g>
<g>
</g>
<g>
</g>
<g>
</g>
<g>
</g>
<g>
</g>
<g>
</g>
<g>
</g>
<g>
</g>
<g>
</g>
<g>
</g>
<g>
</g>
<g>
</g>
</svg>
